<?xml version="1.0" encoding="UTF-8"?>
<!DOCTYPE svg PUBLIC "-//W3C//DTD SVG 1.1//EN" "http://www.w3.org/Graphics/SVG/1.1/DTD/svg11.dtd">
<svg xmlns="http://www.w3.org/2000/svg" version="1.1" width="1001px" height="1000px" style="shape-rendering:geometricPrecision; text-rendering:geometricPrecision; image-rendering:optimizeQuality; fill-rule:evenodd; clip-rule:evenodd" xmlns:xlink="http://www.w3.org/1999/xlink">
<g><path style="opacity:0.998" fill="#f0f0f2" d="M 748.5,258.5 C 750.766,262.436 753.766,265.769 757.5,268.5C 811.786,324.758 843.286,392.092 852,470.5C 861.116,577.493 829.45,670.16 757,748.5C 672.463,831.343 571.296,864.176 453.5,847C 384.944,834.726 325.944,804.559 276.5,756.5C 273.769,752.766 270.436,749.766 266.5,747.5C 194.322,669.475 162.822,577.142 172,470.5C 180.714,392.092 212.214,324.758 266.5,268.5C 270.167,265.5 273.5,262.167 276.5,258.5C 325.944,210.441 384.944,180.274 453.5,168C 551.952,152.864 640.952,174.864 720.5,234C 730.001,242.003 739.334,250.17 748.5,258.5 Z"/></g>
<g><path style="opacity:1" fill="#33384f" d="M 530.5,842.5 C 513.491,842.528 496.491,842.195 479.5,841.5C 367.815,827.94 282.981,773.274 225,677.5C 170.336,577.49 165.002,474.823 209,369.5C 259.326,264.858 341.492,201.025 455.5,178C 574.265,161.697 675.098,196.53 758,282.5C 833.965,371.131 859.632,472.797 835,587.5C 811.357,678.107 759.857,747.94 680.5,797C 634.028,823.768 584.028,838.935 530.5,842.5 Z"/></g>
<g><path style="opacity:0.514" fill="#7c7f8e" d="M 748.5,258.5 C 752.234,261.231 755.234,264.564 757.5,268.5C 753.766,265.769 750.766,262.436 748.5,258.5 Z"/></g>
<g><path style="opacity:0.533" fill="#8b8e9b" d="M 276.5,258.5 C 273.5,262.167 270.167,265.5 266.5,268.5C 268.833,264.167 272.167,260.833 276.5,258.5 Z"/></g>
<g><path style="opacity:1" fill="#a79734" d="M 514.5,341.5 C 503.15,341.407 491.817,341.741 480.5,342.5C 486.93,340.975 493.596,340.308 500.5,340.5C 505.346,340.501 510.012,340.834 514.5,341.5 Z"/></g>
<g><path style="opacity:1" fill="#f9d804" d="M 514.5,341.5 C 514.833,341.5 515.167,341.5 515.5,341.5C 516.842,342.793 518.509,343.626 520.5,344C 518.5,344.333 516.5,344.667 514.5,345C 507.833,349.667 501.167,354.333 494.5,359C 493.167,360.667 491.833,362.333 490.5,364C 477.453,370.854 465.453,379.187 454.5,389C 442.855,396.16 431.521,403.826 420.5,412C 419.748,412.671 419.414,413.504 419.5,414.5C 414.099,411.796 409.432,408.129 405.5,403.5C 413.452,386.215 424.785,371.549 439.5,359.5C 447.706,353.562 456.706,348.895 466.5,345.5C 469.727,345.324 472.727,344.657 475.5,343.5C 477.042,342.699 478.708,342.366 480.5,342.5C 491.817,341.741 503.15,341.407 514.5,341.5 Z"/></g>
<g><path style="opacity:1" fill="#9f9137" d="M 475.5,343.5 C 472.727,344.657 469.727,345.324 466.5,345.5C 469.171,343.882 472.171,343.215 475.5,343.5 Z"/></g>
<g><path style="opacity:1" fill="#f8d103" d="M 515.5,341.5 C 520.974,342.207 526.307,343.207 531.5,344.5C 531.918,345.222 532.584,345.722 533.5,346C 532.833,346.333 532.167,346.667 531.5,347C 532.624,347.249 533.624,347.749 534.5,348.5C 522.752,359.411 509.752,368.577 495.5,376C 487.189,384.15 477.855,390.817 467.5,396C 457.319,405.19 446.319,413.19 434.5,420C 435.305,421.113 435.972,422.279 436.5,423.5C 431.571,422.033 426.904,420.033 422.5,417.5C 421.694,416.272 420.694,415.272 419.5,414.5C 419.414,413.504 419.748,412.671 420.5,412C 431.521,403.826 442.855,396.16 454.5,389C 465.453,379.187 477.453,370.854 490.5,364C 491.833,362.333 493.167,360.667 494.5,359C 501.167,354.333 507.833,349.667 514.5,345C 516.5,344.667 518.5,344.333 520.5,344C 518.509,343.626 516.842,342.793 515.5,341.5 Z"/></g>
<g><path style="opacity:1" fill="#f7ca04" d="M 531.5,344.5 C 540.365,346.932 548.365,350.932 555.5,356.5C 553.692,356.491 552.025,356.991 550.5,358C 546.267,362.581 541.267,365.914 535.5,368C 511.271,385.934 486.938,403.601 462.5,421C 457.857,423.818 453.19,426.318 448.5,428.5C 444.236,427.365 440.236,425.698 436.5,423.5C 435.972,422.279 435.305,421.113 434.5,420C 446.319,413.19 457.319,405.19 467.5,396C 477.855,390.817 487.189,384.15 495.5,376C 509.752,368.577 522.752,359.411 534.5,348.5C 533.624,347.749 532.624,347.249 531.5,347C 532.167,346.667 532.833,346.333 533.5,346C 532.584,345.722 531.918,345.222 531.5,344.5 Z"/></g>
<g><path style="opacity:1" fill="#f7c402" d="M 555.5,356.5 C 557.315,357.63 559.315,358.296 561.5,358.5C 561.5,358.833 561.5,359.167 561.5,359.5C 564.139,361.473 566.473,363.806 568.5,366.5C 566.956,366.297 565.622,365.63 564.5,364.5C 542.717,379.774 521.051,395.274 499.5,411C 494.649,412.849 490.649,415.849 487.5,420C 478.809,424.341 470.475,429.175 462.5,434.5C 457.566,433.031 452.9,431.031 448.5,428.5C 453.19,426.318 457.857,423.818 462.5,421C 486.938,403.601 511.271,385.934 535.5,368C 541.267,365.914 546.267,362.581 550.5,358C 552.025,356.991 553.692,356.491 555.5,356.5 Z"/></g>
<g><path style="opacity:1" fill="#a27f3b" d="M 561.5,359.5 C 561.5,359.167 561.5,358.833 561.5,358.5C 563.857,358.337 566.19,358.503 568.5,359C 569.056,359.383 569.389,359.883 569.5,360.5C 566.833,360.167 564.167,359.833 561.5,359.5 Z"/></g>
<g><path style="opacity:1" fill="#a10d1b" d="M 561.5,359.5 C 564.167,359.833 566.833,360.167 569.5,360.5C 580.846,363.506 591.179,368.673 600.5,376C 604.876,380.251 606.876,385.417 606.5,391.5C 605.093,396.902 602.427,401.569 598.5,405.5C 597.624,405.631 596.957,405.298 596.5,404.5C 590.88,392.23 583.546,381.23 574.5,371.5C 572.909,369.367 570.909,367.701 568.5,366.5C 566.473,363.806 564.139,361.473 561.5,359.5 Z"/></g>
<g><path style="opacity:1" fill="#a10d1b" d="M 439.5,359.5 C 424.785,371.549 413.452,386.215 405.5,403.5C 401.064,400.302 398.398,395.969 397.5,390.5C 397.089,386.537 397.922,382.87 400,379.5C 403.396,375.935 406.896,372.602 410.5,369.5C 416.54,367.647 422.207,364.98 427.5,361.5C 431.5,360.833 435.5,360.167 439.5,359.5 Z"/></g>
<g><path style="opacity:1" fill="#f6be02" d="M 568.5,366.5 C 570.909,367.701 572.909,369.367 574.5,371.5C 574.5,372.167 574.5,372.833 574.5,373.5C 551.365,388.911 528.699,405.077 506.5,422C 502.049,423.122 498.049,425.122 494.5,428C 490.447,432.719 485.781,436.719 480.5,440C 481.056,440.383 481.389,440.883 481.5,441.5C 474.991,439.402 468.658,437.068 462.5,434.5C 470.475,429.175 478.809,424.341 487.5,420C 490.649,415.849 494.649,412.849 499.5,411C 521.051,395.274 542.717,379.774 564.5,364.5C 565.622,365.63 566.956,366.297 568.5,366.5 Z"/></g>
<g><path style="opacity:1" fill="#ae6838" d="M 427.5,361.5 C 422.207,364.98 416.54,367.647 410.5,369.5C 415.473,365.515 421.14,362.848 427.5,361.5 Z"/></g>
<g><path style="opacity:1" fill="#c5bd2e" d="M 569.5,360.5 C 577.729,361.299 585.395,363.799 592.5,368C 600.192,372.187 605.525,378.354 608.5,386.5C 607.833,388.167 607.167,389.833 606.5,391.5C 606.876,385.417 604.876,380.251 600.5,376C 591.179,368.673 580.846,363.506 569.5,360.5 Z"/></g>
<g><path style="opacity:1" fill="#f5b802" d="M 574.5,373.5 C 577.191,376.195 579.525,379.195 581.5,382.5C 579.64,383.939 577.973,385.605 576.5,387.5C 549.238,406.537 522.238,425.204 495.5,443.5C 494.078,442.223 493.078,442.557 492.5,444.5C 488.521,444.258 484.854,443.258 481.5,441.5C 481.389,440.883 481.056,440.383 480.5,440C 485.781,436.719 490.447,432.719 494.5,428C 498.049,425.122 502.049,423.122 506.5,422C 528.699,405.077 551.365,388.911 574.5,373.5 Z"/></g>
<g><path style="opacity:1" fill="#f4b001" d="M 574.5,371.5 C 583.546,381.23 590.88,392.23 596.5,404.5C 596.957,405.298 597.624,405.631 598.5,405.5C 590.614,411.53 582.281,417.03 573.5,422C 561.731,426.384 550.064,431.05 538.5,436C 530.679,439.219 522.679,441.719 514.5,443.5C 510.045,444.929 505.545,446.262 501,447.5C 498.028,446.583 495.194,445.583 492.5,444.5C 493.078,442.557 494.078,442.223 495.5,443.5C 522.238,425.204 549.238,406.537 576.5,387.5C 577.973,385.605 579.64,383.939 581.5,382.5C 579.525,379.195 577.191,376.195 574.5,373.5C 574.5,372.833 574.5,372.167 574.5,371.5 Z"/></g>
<g><path style="opacity:1" fill="#a1ad2c" d="M 410.5,369.5 C 406.896,372.602 403.396,375.935 400,379.5C 397.922,382.87 397.089,386.537 397.5,390.5C 396.71,389.391 396.21,388.058 396,386.5C 395.28,388.056 394.113,389.056 392.5,389.5C 396.052,380.616 402.052,373.949 410.5,369.5 Z"/></g>
<g><path style="opacity:1" fill="#b4d021" d="M 397.5,390.5 C 398.398,395.969 401.064,400.302 405.5,403.5C 409.432,408.129 414.099,411.796 419.5,414.5C 420.694,415.272 421.694,416.272 422.5,417.5C 420.94,419.129 421.273,420.296 423.5,421C 422.552,421.483 421.552,421.649 420.5,421.5C 415.833,418.5 411.167,415.5 406.5,412.5C 402.095,408.426 398.428,403.76 395.5,398.5C 391.01,408.148 386.51,417.814 382,427.5C 381.581,423.148 380.914,422.815 380,426.5C 379.5,433.826 379.334,441.159 379.5,448.5C 377.056,427.39 381.39,407.724 392.5,389.5C 394.113,389.056 395.28,388.056 396,386.5C 396.21,388.058 396.71,389.391 397.5,390.5 Z"/></g>
<g><path style="opacity:1" fill="#92bd23" d="M 608.5,386.5 C 615.093,398.71 619.759,411.71 622.5,425.5C 623.313,434.156 623.48,442.823 623,451.5C 608.424,442.6 593.591,434.1 578.5,426C 581.402,425.081 581.735,424.248 579.5,423.5C 587.981,418.983 595.814,413.316 603,406.5C 604.667,403.167 606.333,399.833 608,396.5C 608.498,393.183 608.665,389.85 608.5,386.5 Z"/></g>
<g><path style="opacity:1" fill="#cbdf08" d="M 406.5,412.5 C 398.154,427.536 390.321,443.536 383,460.5C 382.182,455.206 381.682,455.206 381.5,460.5C 380.011,456.764 379.344,452.764 379.5,448.5C 379.334,441.159 379.5,433.826 380,426.5C 380.914,422.815 381.581,423.148 382,427.5C 386.51,417.814 391.01,408.148 395.5,398.5C 398.428,403.76 402.095,408.426 406.5,412.5 Z"/></g>
<g><path style="opacity:1" fill="#dee601" d="M 406.5,412.5 C 411.167,415.5 415.833,418.5 420.5,421.5C 423.57,422.532 426.57,423.865 429.5,425.5C 422.475,443.441 414.141,461.608 404.5,480C 404.833,480.333 405.167,480.667 405.5,481C 404.349,483.2 402.682,484.7 400.5,485.5C 397.357,483.758 394.357,481.758 391.5,479.5C 386.327,474.155 382.994,467.822 381.5,460.5C 381.682,455.206 382.182,455.206 383,460.5C 390.321,443.536 398.154,427.536 406.5,412.5 Z"/></g>
<g><path style="opacity:1" fill="#e2e913" d="M 608.5,386.5 C 608.665,389.85 608.498,393.183 608,396.5C 606.333,399.833 604.667,403.167 603,406.5C 595.814,413.316 587.981,418.983 579.5,423.5C 570.525,426.99 561.858,430.99 553.5,435.5C 549.447,436.35 545.447,437.516 541.5,439C 540.944,439.383 540.611,439.883 540.5,440.5C 529.914,442.473 519.914,445.806 510.5,450.5C 508.488,449.772 506.488,448.938 504.5,448C 508.264,447.148 511.597,445.648 514.5,443.5C 522.679,441.719 530.679,439.219 538.5,436C 550.064,431.05 561.731,426.384 573.5,422C 582.281,417.03 590.614,411.53 598.5,405.5C 602.427,401.569 605.093,396.902 606.5,391.5C 607.167,389.833 607.833,388.167 608.5,386.5 Z"/></g>
<g><path style="opacity:1" fill="#8bb52d" d="M 579.5,423.5 C 581.735,424.248 581.402,425.081 578.5,426C 593.591,434.1 608.424,442.6 623,451.5C 623.48,442.823 623.313,434.156 622.5,425.5C 625.222,438.723 625.055,452.056 622,465.5C 621.128,469.181 619.294,472.181 616.5,474.5C 596.461,461.3 575.794,449.133 554.5,438C 553.748,437.329 553.414,436.496 553.5,435.5C 561.858,430.99 570.525,426.99 579.5,423.5 Z"/></g>
<g><path style="opacity:1" fill="#d2e006" d="M 429.5,425.5 C 434.48,427.323 439.147,429.657 443.5,432.5C 442.624,432.369 441.957,432.702 441.5,433.5C 438.053,440.573 434.72,447.073 431.5,453C 431.833,453.333 432.167,453.667 432.5,454C 430.039,458.421 427.706,462.921 425.5,467.5C 425.709,468.086 426.043,468.586 426.5,469C 425.167,470.667 423.833,472.333 422.5,474C 422.833,474.333 423.167,474.667 423.5,475C 420.876,475.576 420.209,476.91 421.5,479C 418.787,482.924 416.453,487.091 414.5,491.5C 414.043,492.298 413.376,492.631 412.5,492.5C 411.833,492.5 411.167,492.5 410.5,492.5C 406.779,490.646 403.446,488.313 400.5,485.5C 402.682,484.7 404.349,483.2 405.5,481C 405.167,480.667 404.833,480.333 404.5,480C 414.141,461.608 422.475,443.441 429.5,425.5 Z"/></g>
<g><path style="opacity:1" fill="#c6da0a" d="M 443.5,432.5 C 448.68,434.264 453.68,436.264 458.5,438.5C 448.461,457.91 438.795,478.077 429.5,499C 429.833,499.333 430.167,499.667 430.5,500C 429.552,500.483 428.552,500.649 427.5,500.5C 421.74,499.122 416.74,496.455 412.5,492.5C 413.376,492.631 414.043,492.298 414.5,491.5C 416.453,487.091 418.787,482.924 421.5,479C 420.209,476.91 420.876,475.576 423.5,475C 423.167,474.667 422.833,474.333 422.5,474C 423.833,472.333 425.167,470.667 426.5,469C 426.043,468.586 425.709,468.086 425.5,467.5C 427.706,462.921 430.039,458.421 432.5,454C 432.167,453.667 431.833,453.333 431.5,453C 434.72,447.073 438.053,440.573 441.5,433.5C 441.957,432.702 442.624,432.369 443.5,432.5 Z"/></g>
<g><path style="opacity:1" fill="#85ad35" d="M 553.5,435.5 C 553.414,436.496 553.748,437.329 554.5,438C 575.794,449.133 596.461,461.3 616.5,474.5C 615.752,476.332 614.752,477.999 613.5,479.5C 611.938,479.733 610.605,480.4 609.5,481.5C 594.71,473.686 580.043,464.853 565.5,455C 559.682,452.59 554.015,449.923 548.5,447C 545.904,445.288 543.237,443.121 540.5,440.5C 540.611,439.883 540.944,439.383 541.5,439C 545.447,437.516 549.447,436.35 553.5,435.5 Z"/></g>
<g><path style="opacity:1" fill="#e9e834" d="M 422.5,417.5 C 426.904,420.033 431.571,422.033 436.5,423.5C 440.236,425.698 444.236,427.365 448.5,428.5C 452.9,431.031 457.566,433.031 462.5,434.5C 468.658,437.068 474.991,439.402 481.5,441.5C 484.854,443.258 488.521,444.258 492.5,444.5C 495.194,445.583 498.028,446.583 501,447.5C 505.545,446.262 510.045,444.929 514.5,443.5C 511.597,445.648 508.264,447.148 504.5,448C 506.488,448.938 508.488,449.772 510.5,450.5C 535.891,457.197 559.558,467.697 581.5,482C 585.445,485.435 588.778,489.268 591.5,493.5C 591.833,494.833 592.167,496.167 592.5,497.5C 592.649,498.552 592.483,499.552 592,500.5C 590.974,497.761 589.474,495.428 587.5,493.5C 586.167,491.5 584.5,489.833 582.5,488.5C 575.893,482.253 568.226,477.587 559.5,474.5C 556.485,472.326 553.151,470.659 549.5,469.5C 545.541,467.027 541.207,465.36 536.5,464.5C 531.022,461.118 525.022,459.118 518.5,458.5C 509.503,454.724 500.169,451.724 490.5,449.5C 484.384,447.13 478.051,445.13 471.5,443.5C 467.345,441.598 463.011,439.931 458.5,438.5C 453.68,436.264 448.68,434.264 443.5,432.5C 439.147,429.657 434.48,427.323 429.5,425.5C 426.57,423.865 423.57,422.532 420.5,421.5C 421.552,421.649 422.552,421.483 423.5,421C 421.273,420.296 420.94,419.129 422.5,417.5 Z"/></g>
<g><path style="opacity:1" fill="#b9d40f" d="M 458.5,438.5 C 463.011,439.931 467.345,441.598 471.5,443.5C 471.611,444.117 471.944,444.617 472.5,445C 468.082,451.463 465.082,457.796 463.5,464C 457.676,476.383 451.509,489.55 445,503.5C 444.316,504.784 444.483,505.951 445.5,507C 444.552,507.483 443.552,507.649 442.5,507.5C 437.07,505.95 432.07,503.616 427.5,500.5C 428.552,500.649 429.552,500.483 430.5,500C 430.167,499.667 429.833,499.333 429.5,499C 438.795,478.077 448.461,457.91 458.5,438.5 Z"/></g>
<g><path style="opacity:1" fill="#81a73d" d="M 540.5,440.5 C 543.237,443.121 545.904,445.288 548.5,447C 554.015,449.923 559.682,452.59 565.5,455C 580.043,464.853 594.71,473.686 609.5,481.5C 603.881,485.983 597.881,489.983 591.5,493.5C 588.778,489.268 585.445,485.435 581.5,482C 559.558,467.697 535.891,457.197 510.5,450.5C 519.914,445.806 529.914,442.473 540.5,440.5 Z"/></g>
<g><path style="opacity:1" fill="#adce13" d="M 471.5,443.5 C 478.051,445.13 484.384,447.13 490.5,449.5C 489.761,449.369 489.094,449.536 488.5,450C 488.833,451 489.167,452 489.5,453C 481.678,469.646 473.344,485.979 464.5,502C 464.165,503.164 464.165,504.497 464.5,506C 463.061,508.225 461.394,510.225 459.5,512C 459.833,512.333 460.167,512.667 460.5,513C 459.207,513.49 457.873,513.657 456.5,513.5C 451.571,511.85 446.904,509.85 442.5,507.5C 443.552,507.649 444.552,507.483 445.5,507C 444.483,505.951 444.316,504.784 445,503.5C 451.509,489.55 457.676,476.383 463.5,464C 465.082,457.796 468.082,451.463 472.5,445C 471.944,444.617 471.611,444.117 471.5,443.5 Z"/></g>
<g><path style="opacity:1" fill="#9bc519" d="M 490.5,449.5 C 500.169,451.724 509.503,454.724 518.5,458.5C 517.503,458.47 516.836,458.97 516.5,460C 509.053,475.612 501.386,491.112 493.5,506.5C 493.833,507.167 494.167,507.833 494.5,508.5C 492.973,510.193 491.64,512.027 490.5,514C 491.634,515.016 491.301,515.683 489.5,516C 489.957,516.414 490.291,516.914 490.5,517.5C 488.211,520.059 487.211,522.726 487.5,525.5C 476.799,522.251 466.465,518.251 456.5,513.5C 457.873,513.657 459.207,513.49 460.5,513C 460.167,512.667 459.833,512.333 459.5,512C 461.394,510.225 463.061,508.225 464.5,506C 464.165,504.497 464.165,503.164 464.5,502C 473.344,485.979 481.678,469.646 489.5,453C 489.167,452 488.833,451 488.5,450C 489.094,449.536 489.761,449.369 490.5,449.5 Z"/></g>
<g><path style="opacity:1" fill="#90be1d" d="M 518.5,458.5 C 525.022,459.118 531.022,461.118 536.5,464.5C 533.639,464.513 532.639,465.679 533.5,468C 531.355,469.943 529.688,472.276 528.5,475C 528.833,475.333 529.167,475.667 529.5,476C 525.991,481.35 522.991,487.017 520.5,493C 515.907,504.761 510.074,517.261 503,530.5C 501.989,531.337 500.822,531.67 499.5,531.5C 495.435,529.467 491.435,527.467 487.5,525.5C 487.211,522.726 488.211,520.059 490.5,517.5C 490.291,516.914 489.957,516.414 489.5,516C 491.301,515.683 491.634,515.016 490.5,514C 491.64,512.027 492.973,510.193 494.5,508.5C 494.167,507.833 493.833,507.167 493.5,506.5C 501.386,491.112 509.053,475.612 516.5,460C 516.836,458.97 517.503,458.47 518.5,458.5 Z"/></g>
<g><path style="opacity:1" fill="#7fad1e" d="M 536.5,464.5 C 541.207,465.36 545.541,467.027 549.5,469.5C 547.767,470.008 547.434,470.841 548.5,472C 547.5,473 546.5,474 545.5,475C 545.833,475.333 546.167,475.667 546.5,476C 540.788,487.275 535.121,498.108 529.5,508.5C 529.709,509.086 530.043,509.586 530.5,510C 525.101,519.07 521.434,527.07 519.5,534C 518.238,535.992 516.905,538.492 515.5,541.5C 514.643,542.425 513.643,543.092 512.5,543.5C 509.457,539.456 505.791,536.123 501.5,533.5C 500.833,532.833 500.167,532.167 499.5,531.5C 500.822,531.67 501.989,531.337 503,530.5C 510.074,517.261 515.907,504.761 520.5,493C 522.991,487.017 525.991,481.35 529.5,476C 529.167,475.667 528.833,475.333 528.5,475C 529.688,472.276 531.355,469.943 533.5,468C 532.639,465.679 533.639,464.513 536.5,464.5 Z"/></g>
<g><path style="opacity:1" fill="#74a01e" d="M 549.5,469.5 C 553.151,470.659 556.485,472.326 559.5,474.5C 561.927,476.558 564.593,478.391 567.5,480C 560.961,491.602 554.794,503.435 549,515.5C 544.091,526.983 538.924,538.316 533.5,549.5C 534.025,550.192 534.692,550.692 535.5,551C 534.584,551.278 533.918,551.778 533.5,552.5C 528.809,554.591 523.809,555.924 518.5,556.5C 516.712,556.785 515.045,556.452 513.5,555.5C 514.977,551.321 514.643,547.321 512.5,543.5C 513.643,543.092 514.643,542.425 515.5,541.5C 516.905,538.492 518.238,535.992 519.5,534C 521.434,527.07 525.101,519.07 530.5,510C 530.043,509.586 529.709,509.086 529.5,508.5C 535.121,498.108 540.788,487.275 546.5,476C 546.167,475.667 545.833,475.333 545.5,475C 546.5,474 547.5,473 548.5,472C 547.434,470.841 547.767,470.008 549.5,469.5 Z"/></g>
<g><path style="opacity:1" fill="#6b991e" d="M 559.5,474.5 C 568.226,477.587 575.893,482.253 582.5,488.5C 578.068,496.526 573.735,504.693 569.5,513C 569.833,513.333 570.167,513.667 570.5,514C 565.157,523.52 560.49,533.353 556.5,543.5C 549.439,547.857 541.772,550.857 533.5,552.5C 533.918,551.778 534.584,551.278 535.5,551C 534.692,550.692 534.025,550.192 533.5,549.5C 538.924,538.316 544.091,526.983 549,515.5C 554.794,503.435 560.961,491.602 567.5,480C 564.593,478.391 561.927,476.558 559.5,474.5 Z"/></g>
<g><path style="opacity:1" fill="#1f4b36" d="M 391.5,479.5 C 394.357,481.758 397.357,483.758 400.5,485.5C 403.446,488.313 406.779,490.646 410.5,492.5C 411.067,494.698 411.067,497.031 410.5,499.5C 410.5,500.167 410.5,500.833 410.5,501.5C 410.5,503.833 410.5,506.167 410.5,508.5C 410.5,509.167 410.5,509.833 410.5,510.5C 409.675,506.353 409.175,502.019 409,497.5C 401.599,492.934 395.766,486.934 391.5,479.5 Z"/></g>
<g><path style="opacity:1" fill="#568f1e" d="M 582.5,488.5 C 584.5,489.833 586.167,491.5 587.5,493.5C 580.578,507.83 573.911,521.997 567.5,536C 568.056,536.383 568.389,536.883 568.5,537.5C 564.818,540.008 560.818,542.008 556.5,543.5C 560.49,533.353 565.157,523.52 570.5,514C 570.167,513.667 569.833,513.333 569.5,513C 573.735,504.693 578.068,496.526 582.5,488.5 Z"/></g>
<g><path style="opacity:1" fill="#134e2b" d="M 613.5,479.5 C 608.382,487.288 601.715,493.288 593.5,497.5C 593.167,497.5 592.833,497.5 592.5,497.5C 592.167,496.167 591.833,494.833 591.5,493.5C 597.881,489.983 603.881,485.983 609.5,481.5C 610.605,480.4 611.938,479.733 613.5,479.5 Z"/></g>
<g><path style="opacity:1" fill="#4a8820" d="M 587.5,493.5 C 589.474,495.428 590.974,497.761 592,500.5C 592.483,499.552 592.649,498.552 592.5,497.5C 592.833,497.5 593.167,497.5 593.5,497.5C 595.355,511.445 590.688,522.612 579.5,531C 576.108,533.694 572.441,535.86 568.5,537.5C 568.389,536.883 568.056,536.383 567.5,536C 573.911,521.997 580.578,507.83 587.5,493.5 Z"/></g>
<g><path style="opacity:1" fill="#427f0f" d="M 410.5,492.5 C 411.167,492.5 411.833,492.5 412.5,492.5C 416.74,496.455 421.74,499.122 427.5,500.5C 432.07,503.616 437.07,505.95 442.5,507.5C 446.904,509.85 451.571,511.85 456.5,513.5C 466.465,518.251 476.799,522.251 487.5,525.5C 491.435,527.467 495.435,529.467 499.5,531.5C 500.167,532.167 500.833,532.833 501.5,533.5C 500.167,534.5 498.833,535.5 497.5,536.5C 493.557,533.522 489.223,531.022 484.5,529C 473.284,524.561 461.951,520.394 450.5,516.5C 437.194,510.849 423.861,505.183 410.5,499.5C 411.067,497.031 411.067,494.698 410.5,492.5 Z"/></g>
<g><path style="opacity:1" fill="#82b621" d="M 410.5,499.5 C 423.861,505.183 437.194,510.849 450.5,516.5C 449.226,517.189 449.226,518.023 450.5,519C 458.491,523.663 466.491,528.329 474.5,533C 480.432,536.134 486.432,538.968 492.5,541.5C 490.688,543.461 489.688,545.794 489.5,548.5C 488.662,548.842 488.328,549.508 488.5,550.5C 463.766,536.293 439.099,521.793 414.5,507C 413.551,506.383 412.718,506.549 412,507.5C 411.809,505.292 411.309,503.292 410.5,501.5C 410.5,500.833 410.5,500.167 410.5,499.5 Z"/></g>
<g><path style="opacity:1" fill="#598b2c" d="M 412.5,517.5 C 413.873,517.343 415.207,517.51 416.5,518C 438.789,531.171 461.123,544.004 483.5,556.5C 461.286,551.824 440.952,542.99 422.5,530C 418.317,526.441 414.984,522.275 412.5,517.5 Z"/></g>
<g><path style="opacity:1" fill="#95c91e" d="M 450.5,516.5 C 461.951,520.394 473.284,524.561 484.5,529C 489.223,531.022 493.557,533.522 497.5,536.5C 495.5,537.833 493.833,539.5 492.5,541.5C 486.432,538.968 480.432,536.134 474.5,533C 466.491,528.329 458.491,523.663 450.5,519C 449.226,518.023 449.226,517.189 450.5,516.5 Z"/></g>
<g><path style="opacity:1" fill="#6da124" d="M 410.5,501.5 C 411.309,503.292 411.809,505.292 412,507.5C 412.718,506.549 413.551,506.383 414.5,507C 439.099,521.793 463.766,536.293 488.5,550.5C 488.657,551.873 488.49,553.207 488,554.5C 480.081,551.57 472.914,547.404 466.5,542C 459.491,539.836 453.491,536.17 448.5,531C 445.014,529.966 441.681,528.633 438.5,527C 430.082,522.105 421.748,516.938 413.5,511.5C 412.914,511.709 412.414,512.043 412,512.5C 411.79,510.942 411.29,509.609 410.5,508.5C 410.5,506.167 410.5,503.833 410.5,501.5 Z"/></g>
<g><path style="opacity:1" fill="#619526" d="M 410.5,508.5 C 411.29,509.609 411.79,510.942 412,512.5C 412.414,512.043 412.914,511.709 413.5,511.5C 421.748,516.938 430.082,522.105 438.5,527C 441.681,528.633 445.014,529.966 448.5,531C 453.491,536.17 459.491,539.836 466.5,542C 472.914,547.404 480.081,551.57 488,554.5C 488.49,553.207 488.657,551.873 488.5,550.5C 488.328,549.508 488.662,548.842 489.5,548.5C 489.5,551.167 489.5,553.833 489.5,556.5C 487.5,556.5 485.5,556.5 483.5,556.5C 461.123,544.004 438.789,531.171 416.5,518C 415.207,517.51 413.873,517.343 412.5,517.5C 411.545,515.254 410.878,512.921 410.5,510.5C 410.5,509.833 410.5,509.167 410.5,508.5 Z"/></g>
<g><path style="opacity:1" fill="#245535" d="M 501.5,533.5 C 505.791,536.123 509.457,539.456 512.5,543.5C 514.643,547.321 514.977,551.321 513.5,555.5C 515.045,556.452 516.712,556.785 518.5,556.5C 516.735,557.461 514.735,557.795 512.5,557.5C 512.604,548.947 508.938,542.614 501.5,538.5C 494.062,542.614 490.396,548.947 490.5,557.5C 487.941,557.802 485.607,557.468 483.5,556.5C 485.5,556.5 487.5,556.5 489.5,556.5C 489.5,553.833 489.5,551.167 489.5,548.5C 489.688,545.794 490.688,543.461 492.5,541.5C 493.833,539.5 495.5,537.833 497.5,536.5C 498.833,535.5 500.167,534.5 501.5,533.5 Z"/></g>
<g><path style="opacity:1" fill="#f3f3f4" d="M 503.5,629.5 C 498.13,629.608 492.797,629.275 487.5,628.5C 476.693,623.216 472.527,614.55 475,602.5C 478.869,592.141 486.369,587.141 497.5,587.5C 515.03,588.194 522.53,597.194 520,614.5C 517.46,622.878 511.96,627.878 503.5,629.5 Z"/></g>
<g><path style="opacity:1" fill="#eff0f1" d="M 537.5,587.5 C 544.23,587.226 550.897,587.726 557.5,589C 560.04,590.431 562.373,592.098 564.5,594C 564.22,595.395 563.553,596.562 562.5,597.5C 556.019,592.285 548.686,590.451 540.5,592C 537.022,594.706 536.689,597.706 539.5,601C 546.102,603.534 552.769,605.867 559.5,608C 567.802,611.73 569.635,617.564 565,625.5C 557.531,630.209 549.365,631.709 540.5,630C 536.205,629.102 532.372,627.269 529,624.5C 528.564,622.704 529.231,621.371 531,620.5C 537.768,625.135 545.268,626.635 553.5,625C 558.752,623.406 559.752,620.406 556.5,616C 550.909,613.803 545.242,611.803 539.5,610C 536.088,608.545 532.921,606.712 530,604.5C 528.632,601.262 528.299,597.928 529,594.5C 531.391,591.607 534.225,589.273 537.5,587.5 Z"/></g>
<g><path style="opacity:1" fill="#f3f3f4" d="M 604.5,629.5 C 598.797,629.625 593.13,629.292 587.5,628.5C 581.846,626.344 578.012,622.344 576,616.5C 574.547,608.703 575.547,601.369 579,594.5C 583.822,589.225 589.822,586.891 597,587.5C 615.709,588.223 623.375,597.889 620,616.5C 617.288,623.771 612.121,628.104 604.5,629.5 Z"/></g>
<g><path style="opacity:1" fill="#f1f1f3" d="M 325.5,588.5 C 328.85,588.335 332.183,588.502 335.5,589C 339.009,593.34 342.676,597.507 346.5,601.5C 350.21,597.792 353.543,593.792 356.5,589.5C 359.833,588.167 363.167,588.167 366.5,589.5C 361.119,595.546 356.119,601.879 351.5,608.5C 356.453,615.455 361.787,622.122 367.5,628.5C 364.167,629.833 360.833,629.833 357.5,628.5C 354.153,623.658 350.32,619.325 346,615.5C 341.599,619.436 337.766,623.936 334.5,629C 331.118,629.824 327.784,629.657 324.5,628.5C 330.245,622.096 335.579,615.429 340.5,608.5C 335.485,601.822 330.485,595.155 325.5,588.5 Z"/></g>
<g><path style="opacity:1" fill="#f9fafa" d="M 383.5,614.5 C 385.641,625.434 391.974,628.601 402.5,624C 405.596,621.971 407.262,619.138 407.5,615.5C 408.493,607.016 408.826,598.349 408.5,589.5C 410.833,589.5 413.167,589.5 415.5,589.5C 415.5,598.833 415.5,608.167 415.5,617.5C 413.628,624.703 408.961,628.703 401.5,629.5C 395.044,629.768 388.711,629.101 382.5,627.5C 379.781,625.781 377.781,623.447 376.5,620.5C 375.573,610.206 375.24,599.872 375.5,589.5C 377.833,589.5 380.167,589.5 382.5,589.5C 382.174,598.017 382.507,606.35 383.5,614.5 Z"/></g>
<g><path style="opacity:1" fill="#f3f3f4" d="M 427.5,588.5 C 436.173,588.334 444.84,588.5 453.5,589C 464.739,591.643 468.573,598.477 465,609.5C 462.795,612.04 460.295,614.207 457.5,616C 460.377,620.255 463.377,624.422 466.5,628.5C 463.167,629.833 459.833,629.833 456.5,628.5C 454.406,624.636 452.072,620.969 449.5,617.5C 445.03,616.514 440.363,616.181 435.5,616.5C 435.5,620.5 435.5,624.5 435.5,628.5C 432.833,628.5 430.167,628.5 427.5,628.5C 427.5,615.167 427.5,601.833 427.5,588.5 Z"/></g>
<g><path style="opacity:1" fill="#f6f6f7" d="M 671.5,588.5 C 671.5,601.833 671.5,615.167 671.5,628.5C 667.833,628.5 664.167,628.5 660.5,628.5C 653.82,618.463 647.154,608.463 640.5,598.5C 640.217,597.711 639.717,597.044 639,596.5C 638.5,607.161 638.333,617.828 638.5,628.5C 635.833,628.5 633.167,628.5 630.5,628.5C 630.5,615.167 630.5,601.833 630.5,588.5C 634.182,588.335 637.848,588.501 641.5,589C 648.627,599.424 655.627,609.924 662.5,620.5C 663.499,609.854 663.832,599.187 663.5,588.5C 666.167,588.5 668.833,588.5 671.5,588.5 Z"/></g>
<g><path style="opacity:1" fill="#9498a3" d="M 671.5,588.5 C 672.496,601.99 672.829,615.656 672.5,629.5C 668.298,629.817 664.298,629.483 660.5,628.5C 664.167,628.5 667.833,628.5 671.5,628.5C 671.5,615.167 671.5,601.833 671.5,588.5 Z"/></g>
<g><path style="opacity:1" fill="#b5b7bf" d="M 383.5,614.5 C 382.507,606.35 382.174,598.017 382.5,589.5C 380.167,589.5 377.833,589.5 375.5,589.5C 375.24,599.872 375.573,610.206 376.5,620.5C 375.778,620.082 375.278,619.416 375,618.5C 374.5,608.506 374.334,598.506 374.5,588.5C 377.5,588.5 380.5,588.5 383.5,588.5C 383.5,597.167 383.5,605.833 383.5,614.5 Z"/></g>
<g><path style="opacity:1" fill="#bbbcc4" d="M 415.5,617.5 C 415.5,608.167 415.5,598.833 415.5,589.5C 413.167,589.5 410.833,589.5 408.5,589.5C 408.826,598.349 408.493,607.016 407.5,615.5C 407.5,606.5 407.5,597.5 407.5,588.5C 410.5,588.5 413.5,588.5 416.5,588.5C 416.827,598.348 416.494,608.014 415.5,617.5 Z"/></g>
<g><path style="opacity:1" fill="#8a8d9a" d="M 427.5,588.5 C 427.5,601.833 427.5,615.167 427.5,628.5C 430.167,628.5 432.833,628.5 435.5,628.5C 435.5,624.5 435.5,620.5 435.5,616.5C 440.363,616.181 445.03,616.514 449.5,617.5C 445.167,617.5 440.833,617.5 436.5,617.5C 436.5,621.5 436.5,625.5 436.5,629.5C 433.167,629.5 429.833,629.5 426.5,629.5C 426.171,615.656 426.504,601.99 427.5,588.5 Z"/></g>
<g><path style="opacity:1" fill="#343950" d="M 493.5,591.5 C 501.748,590.542 507.581,593.875 511,601.5C 512.281,608.543 511.281,615.21 508,621.5C 496.473,629.072 488.473,626.405 484,613.5C 481.687,603.556 484.854,596.223 493.5,591.5 Z"/></g>
<g><path style="opacity:1" fill="#353950" d="M 592.5,591.5 C 607.417,591.262 613.584,598.595 611,613.5C 608.146,624.512 601.312,628.012 590.5,624C 582.656,615.74 581.489,606.573 587,596.5C 588.812,594.7 590.645,593.033 592.5,591.5 Z"/></g>
<g><path style="opacity:1" fill="#373c52" d="M 435.5,592.5 C 440.511,592.334 445.511,592.501 450.5,593C 455.32,594.148 457.32,597.148 456.5,602C 456.917,605.521 455.917,608.521 453.5,611C 447.621,612.41 441.621,612.91 435.5,612.5C 435.5,605.833 435.5,599.167 435.5,592.5 Z"/></g>
<g><path style="opacity:1" fill="#7f8290" d="M 640.5,598.5 C 639.506,608.653 639.172,618.986 639.5,629.5C 636.287,629.81 633.287,629.477 630.5,628.5C 633.167,628.5 635.833,628.5 638.5,628.5C 638.333,617.828 638.5,607.161 639,596.5C 639.717,597.044 640.217,597.711 640.5,598.5 Z"/></g>
<g><path style="opacity:1" fill="#9fa1ac" d="M 382.5,627.5 C 388.711,629.101 395.044,629.768 401.5,629.5C 394.942,631.174 388.609,630.508 382.5,627.5 Z"/></g>
<g><path style="opacity:1" fill="#9a9ca8" d="M 487.5,628.5 C 492.797,629.275 498.13,629.608 503.5,629.5C 501.527,630.163 499.361,630.496 497,630.5C 493.523,630.672 490.356,630.006 487.5,628.5 Z"/></g>
<g><path style="opacity:1" fill="#9699a5" d="M 587.5,628.5 C 593.13,629.292 598.797,629.625 604.5,629.5C 602.359,630.163 600.025,630.497 597.5,630.5C 593.859,630.685 590.526,630.019 587.5,628.5 Z"/></g>
<g><path style="opacity:1" fill="#d5d6db" d="M 534.5,652.5 C 536.924,652.192 539.257,652.526 541.5,653.5C 534.833,654.833 534.833,656.167 541.5,657.5C 543.007,659.969 542.673,662.135 540.5,664C 538.19,664.497 535.857,664.663 533.5,664.5C 533.5,663.5 533.5,662.5 533.5,661.5C 540.681,661.381 541.014,660.381 534.5,658.5C 533.306,656.484 533.306,654.484 534.5,652.5 Z"/></g>
<g><path style="opacity:1" fill="#d8d9dd" d="M 549.5,652.5 C 552.572,652.183 555.572,652.516 558.5,653.5C 557.675,654.386 556.675,654.719 555.5,654.5C 555.5,657.833 555.5,661.167 555.5,664.5C 554.5,664.5 553.5,664.5 552.5,664.5C 552.5,661.167 552.5,657.833 552.5,654.5C 550.821,654.715 549.821,654.048 549.5,652.5 Z"/></g>
<g><path style="opacity:1" fill="#d7d8dd" d="M 566.5,652.5 C 567.5,652.5 568.5,652.5 569.5,652.5C 569.5,655.833 569.5,659.167 569.5,662.5C 570.833,662.5 572.167,662.5 573.5,662.5C 573.5,659.167 573.5,655.833 573.5,652.5C 574.5,652.5 575.5,652.5 576.5,652.5C 576.665,655.85 576.498,659.183 576,662.5C 573,665.167 570,665.167 567,662.5C 566.502,659.183 566.335,655.85 566.5,652.5 Z"/></g>
<g><path style="opacity:1" fill="#e8e8eb" d="M 585.5,652.5 C 588.448,652.223 591.281,652.556 594,653.5C 594.667,656.5 594.667,659.5 594,662.5C 593.617,663.056 593.117,663.389 592.5,663.5C 590.167,663.5 587.833,663.5 585.5,663.5C 585.5,659.833 585.5,656.167 585.5,652.5 Z"/></g>
<g><path style="opacity:1" fill="#c6c8ce" d="M 408.5,652.5 C 409.5,652.5 410.5,652.5 411.5,652.5C 411.665,656.182 411.499,659.848 411,663.5C 410.586,663.957 410.086,664.291 409.5,664.5C 408.509,660.555 408.176,656.555 408.5,652.5 Z"/></g>
<g><path style="opacity:1" fill="#d8d9de" d="M 474.5,652.5 C 475.5,652.5 476.5,652.5 477.5,652.5C 477.5,656.167 477.5,659.833 477.5,663.5C 476.5,663.5 475.5,663.5 474.5,663.5C 474.5,659.833 474.5,656.167 474.5,652.5 Z"/></g>
<g><path style="opacity:1" fill="#ecedef" d="M 603.5,652.5 C 604.794,654.048 605.461,656.048 605.5,658.5C 605.167,660.5 604.833,662.5 604.5,664.5C 603.509,660.555 603.176,656.555 603.5,652.5 Z"/></g>
<g><path style="opacity:1" fill="#d8d9dd" d="M 615.5,652.5 C 625.855,651.599 628.189,655.432 622.5,664C 619.653,664.944 617.153,664.444 615,662.5C 614.253,659.076 614.42,655.743 615.5,652.5 Z"/></g>
<g><path style="opacity:1" fill="#d5d6db" d="M 373.5,652.5 C 375.144,652.286 376.644,652.62 378,653.5C 379.674,657.021 380.84,660.687 381.5,664.5C 380.5,664.5 379.5,664.5 378.5,664.5C 378.5,663.5 378.5,662.5 378.5,661.5C 375.712,661.868 373.046,662.368 370.5,663C 372.191,659.721 373.191,656.221 373.5,652.5 Z"/></g>
<g><path style="opacity:1" fill="#3f4459" d="M 587.5,654.5 C 589.167,654.5 590.833,654.5 592.5,654.5C 592.5,656.833 592.5,659.167 592.5,661.5C 590.833,661.5 589.167,661.5 587.5,661.5C 587.5,659.167 587.5,656.833 587.5,654.5 Z"/></g>
<g><path style="opacity:1" fill="#d2d3d8" d="M 443.5,652.5 C 446.238,651.965 448.072,652.965 449,655.5C 449.532,658.264 450.366,660.93 451.5,663.5C 450.675,664.386 449.675,664.719 448.5,664.5C 448.5,663.5 448.5,662.5 448.5,661.5C 445.592,661.262 443.258,662.262 441.5,664.5C 441.167,664 440.833,663.5 440.5,663C 441.811,659.569 442.811,656.069 443.5,652.5 Z"/></g>
<g><path style="opacity:1" fill="#d2d3d8" d="M 457.5,652.5 C 460.572,652.183 463.572,652.516 466.5,653.5C 465.675,654.386 464.675,654.719 463.5,654.5C 463.665,657.518 463.498,660.518 463,663.5C 462.586,663.957 462.086,664.291 461.5,664.5C 460.513,661.232 460.18,657.898 460.5,654.5C 458.821,654.715 457.821,654.048 457.5,652.5 Z"/></g>
<g><path style="opacity:1" fill="#3b4056" d="M 617.5,654.5 C 619.167,654.5 620.833,654.5 622.5,654.5C 622.5,656.833 622.5,659.167 622.5,661.5C 620.833,661.5 619.167,661.5 617.5,661.5C 617.5,659.167 617.5,656.833 617.5,654.5 Z"/></g>
<g><path style="opacity:1" fill="#e8e9eb" d="M 389.5,652.5 C 390.552,652.351 391.552,652.517 392.5,653C 394,655.167 395.5,657.333 397,659.5C 397.186,657.1 397.686,654.766 398.5,652.5C 399.491,656.445 399.824,660.445 399.5,664.5C 398.325,664.719 397.325,664.386 396.5,663.5C 395.243,661.321 393.743,659.321 392,657.5C 391.808,659.577 391.308,661.577 390.5,663.5C 389.511,659.893 389.177,656.226 389.5,652.5 Z"/></g>
<g><path style="opacity:1" fill="#e9e9ec" d="M 504.5,652.5 C 505.552,652.351 506.552,652.517 507.5,653C 509.123,655.08 510.623,657.246 512,659.5C 512.186,657.1 512.686,654.766 513.5,652.5C 514.489,656.107 514.823,659.774 514.5,663.5C 513.448,663.649 512.448,663.483 511.5,663C 510,660.833 508.5,658.667 507,656.5C 506.818,659.226 506.318,661.893 505.5,664.5C 504.509,660.555 504.176,656.555 504.5,652.5 Z"/></g>
<g><path style="opacity:1" fill="#e5e6e9" d="M 420.5,652.5 C 421.833,652.5 423.167,652.5 424.5,652.5C 425.352,660.885 426.686,661.219 428.5,653.5C 429.689,652.571 431.022,652.238 432.5,652.5C 432.823,656.226 432.489,659.893 431.5,663.5C 430.686,661.234 430.186,658.9 430,656.5C 429.069,658.459 428.236,660.459 427.5,662.5C 426.675,663.386 425.675,663.719 424.5,663.5C 423.605,656.943 422.605,656.943 421.5,663.5C 420.511,659.893 420.177,656.226 420.5,652.5 Z"/></g>
<g><path style="opacity:1" fill="#d5d6da" d="M 486.5,652.5 C 496.851,651.642 499.184,655.476 493.5,664C 490.653,664.944 488.153,664.444 486,662.5C 485.253,659.076 485.42,655.743 486.5,652.5 Z"/></g>
<g><path style="opacity:1" fill="#45495e" d="M 488.5,654.5 C 490.167,654.5 491.833,654.5 493.5,654.5C 493.663,656.857 493.497,659.19 493,661.5C 491.644,662.38 490.144,662.714 488.5,662.5C 488.5,659.833 488.5,657.167 488.5,654.5 Z"/></g>
<g><path style="opacity:1" fill="#9597a3" d="M 585.5,652.5 C 585.5,656.167 585.5,659.833 585.5,663.5C 587.833,663.5 590.167,663.5 592.5,663.5C 590.052,664.473 587.385,664.806 584.5,664.5C 584.183,660.298 584.517,656.298 585.5,652.5 Z"/></g>
<g><path style="opacity:0.514" fill="#7c7f8e" d="M 266.5,747.5 C 270.436,749.766 273.769,752.766 276.5,756.5C 272.564,754.234 269.231,751.234 266.5,747.5 Z"/></g>
<g><path style="opacity:1" fill="#616577" d="M 479.5,841.5 C 496.491,842.195 513.491,842.528 530.5,842.5C 523.675,843.166 516.675,843.5 509.5,843.5C 499.287,843.692 489.287,843.025 479.5,841.5 Z"/></g>
</svg>
