<svg xmlns="http://www.w3.org/2000/svg" xml:space="preserve" id="Layer_1" x="0" y="0" style="enable-background:new 0 0 802 156" version="1.1" viewBox="0 0 802 156"><style>.st0{fill:#f50}.st0,.st1{fill-rule:evenodd;clip-rule:evenodd}.st1,.st2{fill:#fff}</style><path d="M786.5.3h10.2v13.6h-10.2V.3zM767.1.3h10.2v13.6h-10.2V.3zM747.8.3H758v13.6h-10.2V.3zM728.4.3h10.2v13.6h-10.2V.3zM709.1.3h10.2v13.6h-10.2V.3zM689.8.3H700v13.6h-10.2V.3zM670.4.3h10.2v13.6h-10.2V.3zM651.1.3h10.2v13.6h-10.2V.3zM631.7.3h10.2v13.6h-10.2V.3zM612.4.3h10.2v13.6h-10.2V.3zM593 .3h10.2v13.6H593V.3zM573.7.3h10.2v13.6h-10.2V.3zM554.4.3h10.2v13.6h-10.2V.3zM535 .3h10.2v13.6H535V.3zM515.7.3h10.2v13.6h-10.2V.3zM496.3.3h10.2v13.6h-10.2V.3zM477 .3h10.2v13.6H477V.3zM457.6.3h10.2v13.6h-10.2V.3zM438.3.3h10.2v13.6h-10.2V.3zM419 .3h10.2v13.6H419V.3zM399.6.3h10.2v13.6h-10.2V.3zM380.3.3h10.2v13.6h-10.2V.3zM360.9.3h10.2v13.6h-10.2V.3zM341.6.3h10.2v13.6h-10.2V.3zM322.2.3h10.2v13.6h-10.2V.3zM302.9.3h10.2v13.6h-10.2V.3zM283.6.3h10.2v13.6h-10.2V.3zM264.2.3h10.2v13.6h-10.2V.3zM244.9.3h10.2v13.6h-10.2V.3zM225.5.3h10.2v13.6h-10.2V.3zM206.2.3h10.2v13.6h-10.2V.3zM186.8.3H197v13.6h-10.2V.3zM167.5.3h10.2v13.6h-10.2V.3zM148.2.3h10.2v13.6h-10.2V.3zM128.8.3H139v13.6h-10.2V.3zM109.5.3h10.2v13.6h-10.2V.3zM93.5.3h6.8v13.6h-6.8V.3zM77.9.3h6.4v13.6h-6.4V.3zM64.1.3h6.1v13.6h-6.1V.3zM50.2.3H56v13.6h-5.8V.3zM22.1.3h5.4v13.6h-5.4V.3zM36.3.3h5.1v13.6h-5.1V.3zM786.5 140.5h10.2v13.6h-10.2v-13.6zM767.1 140.5h10.2v13.6h-10.2v-13.6zM747.8 140.5H758v13.6h-10.2v-13.6zM728.4 140.5h10.2v13.6h-10.2v-13.6zM709.1 140.5h10.2v13.6h-10.2v-13.6zM689.8 140.5H700v13.6h-10.2v-13.6zM670.4 140.5h10.2v13.6h-10.2v-13.6zM651.1 140.5h10.2v13.6h-10.2v-13.6zM631.7 140.5h10.2v13.6h-10.2v-13.6zM612.4 140.5h10.2v13.6h-10.2v-13.6zM593 140.5h10.2v13.6H593v-13.6zM573.7 140.5h10.2v13.6h-10.2v-13.6zM554.4 140.5h10.2v13.6h-10.2v-13.6zM535 140.5h10.2v13.6H535v-13.6zM515.7 140.5h10.2v13.6h-10.2v-13.6zM499.7 140.5h6.8v13.6h-6.8v-13.6zM484.1 140.5h6.4v13.6h-6.4v-13.6zM470.3 140.5h6.1v13.6h-6.1v-13.6zM456.4 140.5h5.8v13.6h-5.8v-13.6zM442.5 140.5h5.4v13.6h-5.4v-13.6zM428.3 140.5h5.1V154h-5.1v-13.5z" class="st0"/><path d="M794.6 54.2c-4.6-8-11-14.2-19.1-18.7-8.1-4.4-17.1-6.7-27-6.7-9.5 0-18.3 2.2-26.3 6.6-8 4.4-14.4 10.5-19 18.3-4.6 7.8-7 16.6-7 26.3 0 4.5.6 9 1.9 13.5 1.3 4.5 3.1 8.7 5.5 12.7s5.2 7.5 8.5 10.7c3.3 3 6.9 5.6 10.9 7.7 4 2.1 8.1 3.6 12.5 4.6 4.4 1 8.8 1.5 13.2 1.5 9.2 0 17.9-2.1 26.1-6.4 8.1-4.3 14.6-10.2 19.5-17.8 4.9-7.6 7.3-16.1 7.3-25.4-.1-9.9-2.4-18.8-7-26.9zm-12.9 45.5c-1.4 4.4-3.4 8.4-6.1 11.9-2.7 3.5-6 6.3-10.1 8.3-4 2-8.5 3.1-13.5 3.1-5.9 0-11.2-1.4-16-4.2-4.8-2.8-8.8-6.5-12-11.2-3.2-4.7-5.7-10-7.4-15.8-1.7-5.8-2.6-11.5-2.6-17 0-6.6 1.1-12.8 3.4-18.7 2.3-5.9 5.8-10.6 10.5-14.1 4.7-3.6 10.4-5.4 17.1-5.4 5.2 0 10.2 1.3 14.8 3.8 4.6 2.6 8.7 6.1 12.3 10.6 3.6 4.5 6.4 9.8 8.4 15.7 2 6 3 12.3 3 18.9.2 5-.5 9.7-1.8 14.1zM664.9 50.3c0-5.7-.5-10.1-1.7-13-1.1-3-3.9-4.7-8.3-5.1v-1.4h29.2v1.4c-4.3.6-6.9 2.3-8 5.1-1.1 2.8-1.6 6.8-1.6 12v60c0 5.4.5 9.6 1.7 12.7 1.1 3 3.8 4.9 8 5.5v1.3H655v-1.3c3-.3 5.2-1.3 6.7-2.9 1.5-1.6 2.4-3.4 2.7-5.6.4-2.2.5-5.1.5-8.7v-6.1c0-6.6-.2-11.1-.6-13.4-.4-1.8-1.3-3.3-2.5-4.4-1.2-1.2-2.9-2.7-5.2-4.5l-46.9-39.2v66.6c0 5.5.5 9.8 1.6 12.9 1.1 3.1 3.8 4.8 8 5.3v1.3h-28.9v-1.3c4.3-.6 6.9-2.3 8-5 1.1-2.8 1.6-6.8 1.6-12.1V50.3c0-3.7-.2-6.6-.5-8.9-.3-2.3-1.2-4.3-2.6-6-1.4-1.7-3.6-2.8-6.6-3.2v-1.4h39v1.4c-2.1.1-3.1.7-3.1 1.7 0 1.5 1.6 3.4 4.7 5.8l34 28.3V50.3zM567.8 109.2c0 5.4.5 9.6 1.6 12.6 1.1 3.1 3.8 4.9 8 5.5v1.3h-35.6v-1.3c3-.4 5.2-1.4 6.6-3 1.4-1.5 2.3-3.4 2.6-5.6.3-2.2.5-5 .5-8.6V50.3c0-3.7-.2-6.6-.5-8.9-.3-2.3-1.2-4.3-2.6-6-1.4-1.7-3.6-2.8-6.6-3.2v-1.4h35.6v1.4c-4.3.7-6.9 2.4-8 5.2-1.1 2.8-1.6 6.8-1.6 12v59.8zM411.2 50.3c0-5.5-.5-9.8-1.6-12.7-1.1-3-3.8-4.8-8-5.4v-1.4h35.6v1.4c-4.3.4-6.9 2-8 4.8-1.1 2.9-1.6 6.9-1.6 12.3v18.2l12.8-10.2c2.5-2 5.2-4.3 8.2-6.9 3-2.6 5.7-5.3 8.1-8 2.4-2.7 3.6-4.9 3.6-6.5 0-1.3-.3-2.1-1-2.6-.7-.4-1.7-.8-3-1v-1.4H492v1.4c-3.5.2-6.8 1-10 2.4-3.1 1.4-5.9 2.9-8.2 4.6-2.4 1.7-5.6 4.3-9.6 7.6L453.1 56c5.1 4.8 9.6 9.8 13.5 15.1 3.9 5.3 7.5 10.8 10.6 16.7 3.1 5.9 6 12.1 8.6 18.7l2.8 6.8c1.3 3.3 2.3 5.7 3 7.2.7 1.5 1.8 3 3.2 4.4 1.4 1.4 3.1 2.3 5.1 2.5v1.3h-32.7v-1.3c3.5-.6 5.2-2.5 5.2-5.8 0-3.5-1.1-8.2-3.4-13.9-2.3-5.7-4.8-10.9-7.4-15.5-5-8.7-11.7-17.6-20-26.7l-14.1 11.3v32.5c0 5.5.5 9.8 1.6 12.9 1.1 3.1 3.8 4.8 8 5.3v1.3h-35.6v-1.3c3-.5 5.2-1.5 6.6-3.1 1.4-1.6 2.3-3.4 2.6-5.6.3-2.1.5-4.9.5-8.5v-60zM388.2 58.9l-1.2.5c-2-4.8-5-8.9-8.8-12.1-3.9-3.2-8.3-5.7-13.3-7.2-5-1.6-10.1-2.4-15.4-2.4-5.4 0-9 .8-10.8 2.3-1.9 1.6-2.8 4.9-2.8 10.1v8.4h14.8c2.5 0 4.8-.2 6.6-.5 1.9-.3 3.4-1.2 4.7-2.5 1.3-1.3 1.9-3.2 1.9-5.8l1.4-.5 5.7 33.4-1.2.4c-1.6-5.5-3.8-9.5-6.4-12-2.6-2.5-5.7-4-9.1-4.5-3.4-.6-8.4-.8-14.8-.8h-3.6v39.9c0 4.6.2 7.9.8 10 .5 2.1 1.8 3.6 4 4.7s5.7 1.6 10.5 1.6c20.3 0 35.2-9.5 44.5-28.7l1.5.4-12.6 37c-.6-.8-1.4-1.4-2.5-1.6-1.1-.2-2.4-.4-4-.4h-68.2v-1.3c3-.5 5.2-1.5 6.6-3.1 1.4-1.6 2.3-3.4 2.6-5.6.3-2.1.5-4.9.5-8.5V50.3c0-5.5-.5-9.7-1.7-12.7-1.1-3-3.8-4.8-8-5.5v-1.4h63.6c3.9 0 6.5-.6 8-1.7l6.7 29.9zM297.3 87.1a32.2 32.2 0 0 0-7.3-9.6c-3-2.8-6.4-5.2-10.2-7.2-3.7-2-7.7-3.6-12-5 4.9-2.6 8.7-4.7 11.3-6.3 2.7-1.6 5.2-3.8 7.4-6.5s3.4-5.8 3.4-9.2c0-5.4-2.3-8.8-6.9-10.4-4.6-1.5-10.3-2.3-17.1-2.3h-54.5V32c4.2.6 6.8 2.3 7.9 5.2 1.1 2.9 1.7 7.2 1.8 12.9v60c-.1 5.5-.7 9.5-1.7 12.2-1.1 2.7-3.7 4.3-7.9 4.9v1.3h37.3c5 0 9.3-.1 12.8-.2s7.2-.5 10.9-1.1c3.8-.6 7.3-1.5 10.4-2.7 5.4-2.1 9.6-5.4 12.6-9.9s4.5-9.7 4.5-15.6c0-4.2-.9-8.2-2.7-11.9zm-59.8-37c0-4.9.5-8.1 1.5-9.4 1.5-2 6.4-3 14.5-3 3.2 0 6.1.1 8.7.4 2.6.3 4.8 1.1 6.9 2.4 2.1 1.3 3.1 3.2 3.1 5.8 0 3.9-2 7.4-6 10.5-4 3.1-8.6 5.7-13.7 7.8-5.1 2.1-10.1 3.8-15 5.2V50.1zm44.4 54.7c-.8 2.5-2 4.7-3.6 6.8-1.6 2.1-3.5 3.9-5.7 5.4-5.2 3.3-13.1 4.9-23.6 4.9-3.6 0-6.2-.3-7.8-.9-1.6-.6-2.6-1.7-3.1-3.2-.5-1.5-.7-4.1-.7-7.7V76.8l22.4-8.4c4 1.7 7.8 3.9 11.3 6.8 3.6 2.9 6.5 6.2 8.6 10 2.2 3.8 3.2 7.8 3.2 12 .2 2.6-.2 5.1-1 7.6zM189.4 130.7c-.5-.8-1.2-1.4-2.2-1.6-1-.2-2.7-.4-5.2-.4h-63.1l57.5-90.4-11.2-.6c-.5 0-.9-.1-1.4-.1h-1.6c-5.5 0-10.6.8-15.4 2.5-4.8 1.6-8.9 4.2-12.6 7.8-3.6 3.6-6.4 8-8.3 13.3l-1.3-.3 7.5-32c.6.8 1.6 1.3 2.8 1.5 1.2.2 3.1.4 5.5.4h59.3L142 121.3l11.1.6c.7 0 1.3 0 1.7.1.4 0 .9 0 1.4.1 6.6 0 12.9-1 18.8-3.2 5.9-2.1 11.2-5.3 15.9-9.4 4.7-4.2 8.5-9.3 11.4-15.2l1.4.4-14.3 36zM110.9 25.5v1.3c-3.8 2.7-5.8 5.5-5.8 8.5 0 .6.2 1.4.6 2.6.2 0 .6 0 1.1-.1.5 0 .8-.1 1.1-.1 1.1 0 2 .4 2.7 1.2.7.8 1.1 1.7 1.1 2.8 0 1.1-.4 2-1.2 2.8-.8.7-1.7 1.1-2.9 1.1-1.9 0-3.4-.8-4.5-2.4-1.1-1.6-1.7-3.4-1.7-5.4 0-1.8.4-3.6 1.3-5.3.8-1.7 2-3.2 3.4-4.4 1.5-1.2 3.1-2.1 4.8-2.6zM98.9 54.2c-4.6-8-11-14.2-19.1-18.7-8.1-4.4-17.1-6.7-27-6.7-9.5 0-18.3 2.2-26.3 6.6-8 4.4-14.4 10.5-19 18.3C2.9 61.5.5 70.3.5 80c0 4.5.6 9 1.9 13.5 1.3 4.5 3.1 8.7 5.5 12.7s5.2 7.5 8.5 10.7c3.3 3 6.9 5.6 10.9 7.7 4 2.1 8.1 3.6 12.5 4.6 4.4 1 8.8 1.5 13.2 1.5 9.2 0 17.9-2.1 26.1-6.4 8.1-4.3 14.6-10.2 19.5-17.8 4.9-7.6 7.3-16.1 7.3-25.4-.1-9.9-2.4-18.8-7-26.9zm-13 45.5c-1.4 4.4-3.4 8.4-6.1 11.9-2.7 3.5-6 6.3-10.1 8.3-4 2-8.5 3.1-13.5 3.1-5.9 0-11.2-1.4-16-4.2-4.8-2.8-8.8-6.5-12-11.2-3.2-4.7-5.7-10-7.4-15.8-1.7-5.8-2.6-11.5-2.6-17 0-6.6 1.1-12.8 3.4-18.7 2.3-5.9 5.8-10.6 10.5-14.1 4.7-3.6 10.4-5.4 17.1-5.4 5.2 0 10.2 1.3 14.8 3.8 4.6 2.6 8.7 6.1 12.3 10.6 3.6 4.5 6.4 9.8 8.4 15.7 2 6 3.1 12.3 3.1 18.9.1 5-.5 9.7-1.9 14.1z" class="st1"/><path d="M466.7 67.2c.6.8 1.3 1.6 1.9 2.4.9 1.1 1.7 2.3 2.5 3.5l9.5-7.6c8.3 9.2 15 18.1 20 26.7 2.6 4.6 5.1 9.8 7.4 15.5 2.3 5.7 3.4 10.3 3.4 13.9 0 3.3-1.7 5.2-5.2 5.8v1.3H539v-1.3c-2-.2-3.7-1.1-5.1-2.5-1.4-1.4-2.5-2.9-3.2-4.4-.7-1.5-1.8-3.9-3-7.2l-2.8-6.8c-2.6-6.6-5.5-12.8-8.6-18.7-3.1-5.9-6.7-11.4-10.6-16.7-4-5.2-8.5-10.3-13.5-15.1l11.1-9.3c4.1-3.3 7.3-5.9 9.6-7.6 2.3-1.7 5.1-3.2 8.2-4.6 3.1-1.4 6.5-2.2 10-2.4v-1.4h-35.8v1.4c1.4.2 2.4.5 3 1 .6.5 1 1.3 1 2.6 0 1.7-1.2 3.8-3.6 6.5-2.4 2.7-5.1 5.4-8.1 8-3 2.6-5.7 4.9-8.2 6.9l-12.7 10.1z" class="st1"/><path d="M26.9 155.7c-1 0-2-.2-3-.5s-1.7-.7-2.3-1.2l.7-1.5c.5.5 1.2.8 2 1.1.8.3 1.7.5 2.5.5s1.4-.1 1.9-.3c.5-.2.9-.4 1.1-.8.2-.3.4-.7.4-1.1 0-.5-.2-.8-.5-1.1-.3-.3-.7-.5-1.2-.7-.5-.2-1-.3-1.6-.5-.6-.1-1.2-.3-1.8-.5-.6-.2-1.1-.4-1.6-.7-.5-.3-.9-.6-1.2-1.1-.3-.5-.5-1.1-.5-1.8s.2-1.4.6-1.9c.4-.6.9-1.1 1.7-1.4.8-.4 1.8-.5 3-.5.8 0 1.6.1 2.4.3.8.2 1.5.5 2 .9l-.6 1.6c-.6-.4-1.2-.7-1.9-.9-.7-.2-1.3-.3-1.9-.3-.8 0-1.4.1-1.9.3-.5.2-.9.5-1.1.8-.2.3-.3.7-.3 1.1 0 .5.2.9.5 1.2.3.3.7.5 1.2.7.5.2 1 .3 1.6.5.6.1 1.2.3 1.8.5.6.2 1.1.4 1.6.7.5.3.9.6 1.2 1.1.3.5.5 1 .5 1.8 0 .7-.2 1.3-.6 1.9-.4.6-1 1.1-1.8 1.4-.8.2-1.7.4-2.9.4zM44.4 155.5v-12h-4.7v-1.7H51v1.7h-4.7v12h-1.9zM60 155.5v-13.7h5.3c1.2 0 2.2.2 3.1.6.8.4 1.5.9 2 1.6.5.7.7 1.6.7 2.6s-.2 1.8-.7 2.6c-.5.7-1.1 1.3-2 1.6-.8.4-1.9.6-3.1.6H61l.9-.9v5.1H60zm2-4.8-.9-1h4.2c1.3 0 2.2-.3 2.8-.8.6-.5 1-1.3 1-2.3 0-1-.3-1.7-1-2.3-.6-.5-1.6-.8-2.8-.8h-4.2l.9-1v8.2zm7.2 4.8-3.5-5h2.1l3.5 5h-2.1zM81.1 155.5v-13.7h2v13.7h-2zM94 155.5v-13.7h1.6l6.1 10.4h-.9l6.1-10.4h1.6v13.7h-1.9v-10.8h.5l-5.4 9.1h-.9l-5.4-9.1h.5v10.8H94zM119.6 155.5v-13.7h2v13.7h-2zM132.5 155.5v-13.7h1.6l9.1 11.3h-.8v-11.3h2v13.7h-1.6l-9.1-11.3h.8v11.3h-2zM161.5 155.7c-1.1 0-2-.2-2.9-.5-.9-.3-1.7-.8-2.3-1.5-.7-.6-1.2-1.4-1.5-2.2-.4-.8-.5-1.8-.5-2.8 0-1 .2-2 .5-2.8.4-.8.9-1.6 1.5-2.2.7-.6 1.4-1.1 2.3-1.5.9-.3 1.9-.5 2.9-.5 1.1 0 2.1.2 3 .5.9.4 1.7.9 2.3 1.6l-1.2 1.2c-.6-.5-1.2-.9-1.8-1.2-.7-.3-1.4-.4-2.1-.4-.8 0-1.5.1-2.2.4-.7.3-1.3.6-1.7 1.1-.5.5-.9 1-1.1 1.7-.3.6-.4 1.3-.4 2.1 0 .7.1 1.4.4 2.1.3.6.6 1.2 1.1 1.7.5.5 1.1.8 1.7 1.1.7.3 1.4.4 2.2.4.7 0 1.4-.1 2.1-.3.7-.2 1.3-.6 1.9-1.1l1.1 1.5c-.7.6-1.5 1-2.4 1.3-1 .1-2 .3-2.9.3zm3.3-2v-5.1h1.9v5.3l-1.9-.2zM189.4 155.5v-13.7h5.3c1.2 0 2.2.2 3.1.6.8.4 1.5.9 2 1.6.5.7.7 1.6.7 2.6s-.2 1.8-.7 2.6c-.5.7-1.1 1.3-2 1.6-.8.4-1.9.6-3.1.6h-4.3l.9-.9v5.1h-1.9zm1.9-4.8-.9-1h4.2c1.3 0 2.2-.3 2.8-.8.6-.5 1-1.3 1-2.3 0-1-.3-1.7-1-2.3-.6-.5-1.6-.8-2.8-.8h-4.2l.9-1v8.2zM210.2 155.5v-13.7h2v12h7.4v1.7h-9.4zM226.6 155.5l6.2-13.7h1.9l6.2 13.7h-2.1l-5.5-12.6h.8l-5.5 12.6h-2zm2.6-3.4.5-1.6h7.7l.6 1.6h-8.8zM251.9 155.5v-12h-4.7v-1.7h11.3v1.7h-4.7v12h-1.9zM269.5 155.5h-2v-13.7h9.7v1.7h-7.7v12zm-.2-7.2h7.1v1.7h-7.1v-1.7zM292.8 155.7c-1 0-2-.2-2.9-.5-.9-.4-1.7-.8-2.3-1.5-.7-.6-1.2-1.4-1.5-2.2-.4-.8-.5-1.8-.5-2.8 0-1 .2-1.9.5-2.8.4-.8.9-1.6 1.5-2.2.7-.6 1.4-1.1 2.3-1.5.9-.4 1.9-.5 2.9-.5s2 .2 2.9.5c.9.3 1.7.8 2.3 1.5.7.6 1.2 1.4 1.5 2.2.4.8.5 1.8.5 2.8 0 1-.2 2-.5 2.8-.4.8-.9 1.6-1.5 2.2-.7.6-1.4 1.1-2.3 1.5-.9.3-1.8.5-2.9.5zm0-1.8c.8 0 1.5-.1 2.1-.4.6-.3 1.2-.6 1.7-1.1.5-.5.8-1 1.1-1.7.3-.6.4-1.3.4-2.1s-.1-1.5-.4-2.1c-.3-.6-.6-1.2-1.1-1.7-.5-.5-1-.8-1.7-1.1-.6-.3-1.3-.4-2.1-.4s-1.5.1-2.1.4c-.6.3-1.2.6-1.7 1.1-.5.5-.9 1-1.1 1.7-.3.6-.4 1.3-.4 2.1s.1 1.5.4 2.1c.3.6.6 1.2 1.1 1.7.5.5 1 .8 1.7 1.1.6.3 1.4.4 2.1.4zM309.9 155.5v-13.7h5.3c1.2 0 2.2.2 3.1.6.8.4 1.5.9 2 1.6.5.7.7 1.6.7 2.6s-.2 1.8-.7 2.6c-.5.7-1.1 1.3-2 1.6-.8.4-1.9.6-3.1.6H311l.9-.9v5.1h-2zm2-4.8-.9-1h4.2c1.3 0 2.2-.3 2.8-.8.6-.5 1-1.3 1-2.3 0-1-.3-1.7-1-2.3-.6-.5-1.6-.8-2.8-.8H311l.9-1v8.2zm7.2 4.8-3.5-5h2.1l3.5 5h-2.1zM331 155.5v-13.7h1.6l6.1 10.4h-.9l6.1-10.4h1.6v13.7h-1.9v-10.8h.5l-5.4 9.1h-.9l-5.4-9.1h.5v10.8H331zM354.5 155.5l6.2-13.7h1.9l6.2 13.7h-2.1l-5.5-12.6h.8l-5.5 12.6h-2zm2.7-3.4.5-1.6h7.7l.6 1.6h-8.8zM381.8 155.7c-1 0-2-.2-3-.5s-1.7-.7-2.3-1.2l.7-1.5c.5.5 1.2.8 2 1.1.8.3 1.7.5 2.5.5s1.4-.1 1.9-.3c.5-.2.9-.4 1.1-.8.2-.3.4-.7.4-1.1 0-.5-.2-.8-.5-1.1-.3-.3-.7-.5-1.2-.7-.5-.2-1-.3-1.6-.5-.6-.1-1.2-.3-1.8-.5-.6-.2-1.1-.4-1.6-.7-.5-.3-.9-.6-1.2-1.1-.3-.5-.5-1.1-.5-1.8s.2-1.4.6-1.9c.4-.6.9-1.1 1.7-1.4.8-.4 1.8-.5 3-.5.8 0 1.6.1 2.4.3.8.2 1.5.5 2 .9l-.6 1.6c-.6-.4-1.2-.7-1.9-.9-.7-.2-1.3-.3-1.9-.3-.8 0-1.4.1-1.9.3-.5.2-.9.5-1.1.8-.2.3-.3.7-.3 1.1 0 .5.2.9.5 1.2.3.3.7.5 1.2.7.5.2 1 .3 1.6.5.6.1 1.2.3 1.8.5.6.2 1.1.4 1.6.7.5.3.9.6 1.2 1.1.3.5.5 1 .5 1.8 0 .7-.2 1.3-.6 1.9-.4.6-1 1.1-1.8 1.4-.7.2-1.7.4-2.9.4zM396.8 155.5v-13.7h2v13.7h-2z" class="st2"/></svg>